<svg xmlns="http://www.w3.org/2000/svg" viewBox="0 0 2629.11 500"><defs><style>.cls-1{isolation:isolate;}.cls-2{fill:#c49a6c;}.cls-3{fill:#006838;}.cls-4{opacity:0.75;}.cls-11,.cls-13,.cls-4{mix-blend-mode:multiply;}.cls-5,.cls-6{font-size:29.74px;font-family:Pixelated;}.cls-6{fill:#fff;}.cls-10,.cls-12,.cls-7,.cls-8,.cls-9{fill:none;stroke-miterlimit:10;}.cls-7,.cls-9{stroke:#000;}.cls-7,.cls-8{stroke-width:1.2px;}.cls-8{stroke:#8b5e3c;}.cls-10,.cls-12,.cls-9{stroke-width:1.6px;}.cls-10{stroke:#004c26;}.cls-11{opacity:0.78;}.cls-12{stroke:#004e26;}.cls-13{opacity:0.4;}.cls-14{fill:#1c75bc;}.cls-15{fill:#6d6e71;}.cls-16{fill:#58595b;}</style></defs><g class="cls-1"><g id="Track"><g id="Background"><rect class="cls-2" x="61.1" y="129.94" width="2405.01" height="238.25"/><rect class="cls-3" x="61.1" y="73.83" width="2405.01" height="56.11"/><rect class="cls-3" x="61.1" y="368.19" width="2405.01" height="56.11"/></g><g id="Scroll"><g id="Ending_Numbers" data-name="Ending Numbers"><g class="cls-4"><text class="cls-5" transform="translate(2244.18 344.09) rotate(90)">6</text></g><text class="cls-6" transform="translate(2244.18 343.49) rotate(90)">6</text><g class="cls-4"><text class="cls-5" transform="translate(2244.18 223.25) rotate(90)">3</text></g><text class="cls-6" transform="translate(2244.18 222.65) rotate(90)">3</text><g class="cls-4"><text class="cls-5" transform="translate(2244.18 305.05) rotate(90)">5</text></g><text class="cls-6" transform="translate(2244.18 304.45) rotate(90)">5</text><g class="cls-4"><text class="cls-5" transform="translate(2244.18 262.29) rotate(90)">4</text></g><text class="cls-6" transform="translate(2244.18 261.69) rotate(90)">4</text><g class="cls-4"><text class="cls-5" transform="translate(2244.18 145.16) rotate(90)">1</text></g><text class="cls-6" transform="translate(2244.18 144.56) rotate(90)">1</text><g class="cls-4"><text class="cls-5" transform="translate(2244.18 184.2) rotate(90)">2</text></g><text class="cls-6" transform="translate(2244.18 183.6) rotate(90)">2</text></g><g id="_20_Meter_Marks" data-name="20 Meter Marks"><g class="cls-4"><text class="cls-5" transform="translate(2249.33 116.82) scale(1.01 1)">200</text></g><text class="cls-6" transform="translate(2249.33 116.22) scale(1.01 1)">200</text><g class="cls-4"><text class="cls-5" transform="translate(2033.12 116.82) scale(1.01 1)">180</text></g><text class="cls-6" transform="translate(2033.12 116.22) scale(1.01 1)">180</text><g class="cls-4"><text class="cls-5" transform="translate(1816.91 116.5) scale(1.01 1)">160</text></g><text class="cls-6" transform="translate(1816.91 115.9) scale(1.01 1)">160</text><g class="cls-4"><text class="cls-5" transform="translate(1600.31 116.18) scale(1.01 1)">140</text></g><text class="cls-6" transform="translate(1600.31 115.58) scale(1.01 1)">140</text><g class="cls-4"><text class="cls-5" transform="translate(1385.02 115.85) scale(1.01 1)">120</text></g><text class="cls-6" transform="translate(1385.02 115.25) scale(1.01 1)">120</text><g class="cls-4"><text class="cls-5" transform="translate(1168.81 114.24) scale(1.01 1)">100</text></g><text class="cls-6" transform="translate(1168.81 113.64) scale(1.01 1)">100</text><g class="cls-4"><text class="cls-5" transform="translate(960.1 115.53) scale(1.01 1)">80</text></g><text class="cls-6" transform="translate(960.1 114.93) scale(1.01 1)">80</text><g class="cls-4"><text class="cls-5" transform="translate(743.87 115.21) scale(1.01 1)">60</text></g><text class="cls-6" transform="translate(743.87 114.61) scale(1.01 1)">60</text><g class="cls-4"><text class="cls-5" transform="translate(312.14 114.56) scale(1.01 1)">20</text></g><text class="cls-6" transform="translate(312.14 113.96) scale(1.01 1)">20</text><g class="cls-4"><text class="cls-5" transform="translate(524.91 114.88) scale(1.01 1)">40</text></g><text class="cls-6" transform="translate(524.91 114.28) scale(1.01 1)">40</text></g><g id="Start_Numbers" data-name="Start Numbers"><g class="cls-4"><text class="cls-5" transform="translate(74.15 343.79) rotate(90)">6</text></g><text class="cls-6" transform="translate(73.95 343.49) rotate(90)">6</text><g class="cls-4"><text class="cls-5" transform="translate(74.15 304.75) rotate(90)">5</text></g><text class="cls-6" transform="translate(73.95 304.45) rotate(90)">5</text><g class="cls-4"><text class="cls-5" transform="translate(74.15 222.95) rotate(90)">3</text></g><text class="cls-6" transform="translate(73.95 222.65) rotate(90)">3</text><g class="cls-4"><text class="cls-5" transform="translate(74.15 183.9) rotate(90)">2</text></g><text class="cls-6" transform="translate(73.95 183.6) rotate(90)">2</text><g class="cls-4"><text class="cls-5" transform="translate(74.15 144.86) rotate(90)">1</text></g><text class="cls-6" transform="translate(73.95 144.56) rotate(90)">1</text><g class="cls-4"><text class="cls-5" transform="translate(74.15 261.99) rotate(90)">4</text></g><text class="cls-6" transform="translate(73.95 261.69) rotate(90)">4</text></g><g id="Meter_Lines" data-name="Meter Lines"><g class="cls-4"><line class="cls-7" x1="61.1" y1="328.78" x2="2466.12" y2="328.78"/></g><line class="cls-8" x1="61.1" y1="328.48" x2="2466.12" y2="328.48"/><g class="cls-4"><line class="cls-7" x1="61.1" y1="289.07" x2="2466.12" y2="289.07"/></g><line class="cls-8" x1="61.1" y1="288.77" x2="2466.12" y2="288.77"/><g class="cls-4"><line class="cls-7" x1="61.1" y1="249.36" x2="2466.12" y2="249.36"/></g><line class="cls-8" x1="61.1" y1="249.06" x2="2466.12" y2="249.06"/><g class="cls-4"><line class="cls-7" x1="61.1" y1="209.65" x2="2466.12" y2="209.65"/></g><line class="cls-8" x1="61.1" y1="209.35" x2="2466.12" y2="209.35"/><g class="cls-4"><line class="cls-7" x1="61.1" y1="169.95" x2="2466.12" y2="169.95"/></g><line class="cls-8" x1="61.1" y1="169.65" x2="2466.12" y2="169.65"/><g class="cls-4"><rect class="cls-7" x="107.89" y="131.45" width="2.14" height="235.86"/></g><rect class="cls-8" x="107.69" y="131.15" width="2.14" height="235.86"/><g class="cls-4"><rect class="cls-7" x="323.79" y="131.73" width="2.14" height="235.86"/></g><rect class="cls-8" x="323.79" y="131.13" width="2.14" height="235.86"/><g class="cls-4"><rect class="cls-7" x="755.99" y="131.73" width="2.14" height="235.86"/></g><rect class="cls-8" x="755.99" y="131.13" width="2.14" height="235.86"/><g class="cls-4"><rect class="cls-7" x="539.89" y="131.73" width="2.14" height="235.86"/></g><rect class="cls-8" x="539.89" y="131.13" width="2.14" height="235.86"/><g class="cls-4"><rect class="cls-7" x="972.1" y="131.73" width="2.14" height="235.86"/></g><rect class="cls-8" x="972.1" y="131.13" width="2.14" height="235.86"/><g class="cls-4"><rect class="cls-7" x="1188.2" y="131.73" width="2.14" height="235.86"/></g><rect class="cls-8" x="1188.2" y="131.13" width="2.14" height="235.86"/><g class="cls-4"><rect class="cls-7" x="1404.3" y="131.73" width="2.14" height="235.86"/></g><rect class="cls-8" x="1404.3" y="131.13" width="2.14" height="235.86"/><g class="cls-4"><rect class="cls-7" x="1620.41" y="131.73" width="2.14" height="235.86"/></g><rect class="cls-8" x="1620.41" y="131.13" width="2.14" height="235.86"/><g class="cls-4"><rect class="cls-7" x="2052.61" y="131.73" width="2.14" height="235.86"/></g><rect class="cls-8" x="2052.61" y="131.13" width="2.14" height="235.86"/><g class="cls-4"><rect class="cls-7" x="1836.51" y="131.73" width="2.14" height="235.86"/></g><rect class="cls-8" x="1836.51" y="131.13" width="2.14" height="235.86"/><g class="cls-4"><rect class="cls-7" x="2268.71" y="131.73" width="2.14" height="235.86"/></g><rect class="cls-8" x="2268.71" y="131.13" width="2.14" height="235.86"/><g class="cls-4"><rect class="cls-7" x="2235.43" y="131.75" width="2.14" height="235.86"/></g><rect class="cls-8" x="2235.43" y="131.15" width="2.14" height="235.86"/><g class="cls-4"><line class="cls-9" x1="61.1" y1="369.69" x2="2466.12" y2="369.69"/></g><line class="cls-10" x1="61.1" y1="368.19" x2="2466.12" y2="368.19"/><g class="cls-11"><line class="cls-9" x1="61.1" y1="131.44" x2="2466.12" y2="131.44"/></g><line class="cls-12" x1="61.1" y1="129.94" x2="2466.12" y2="129.94"/><g class="cls-13"><path d="M549.38,362.05h-10V147a11.1,11.1,0,0,0,6,1.18,10.85,10.85,0,0,0,3.94-1.18Z"/></g><path class="cls-14" d="M544.88,357.05h-10V142a11.1,11.1,0,0,0,6,1.18,10.85,10.85,0,0,0,3.94-1.18Z"/><g class="cls-13"><circle cx="544.39" cy="370.66" r="10.74"/></g><circle class="cls-15" cx="539.89" cy="365.66" r="10.74"/><g class="cls-13"><circle cx="544.39" cy="137.47" r="10.74"/></g><circle class="cls-16" cx="539.89" cy="132.47" r="10.74"/><g class="cls-13"><path d="M981.59,362.05h-10V147a11.08,11.08,0,0,0,6,1.18,10.85,10.85,0,0,0,3.94-1.18Z"/></g><path class="cls-14" d="M977.09,357.05h-10V142a11.08,11.08,0,0,0,6,1.18,10.85,10.85,0,0,0,3.94-1.18Z"/><g class="cls-13"><circle cx="976.6" cy="370.66" r="10.74"/></g><circle class="cls-15" cx="972.1" cy="365.66" r="10.74"/><g class="cls-13"><circle cx="976.6" cy="137.47" r="10.74"/></g><circle class="cls-16" cx="972.1" cy="132.47" r="10.74"/><g class="cls-13"><path d="M1413.79,362.05h-10V147a11.1,11.1,0,0,0,6,1.18,10.85,10.85,0,0,0,3.94-1.18Z"/></g><path class="cls-14" d="M1409.29,357.05h-10V142a11.1,11.1,0,0,0,6,1.18,10.85,10.85,0,0,0,3.94-1.18Z"/><g class="cls-13"><circle cx="1408.8" cy="370.66" r="10.74"/></g><circle class="cls-15" cx="1404.3" cy="365.66" r="10.74"/><g class="cls-13"><circle cx="1408.8" cy="137.47" r="10.74"/></g><circle class="cls-16" cx="1404.3" cy="132.47" r="10.74"/><g class="cls-13"><path d="M1846,362.05h-10V147a11.08,11.08,0,0,0,6,1.18A10.85,10.85,0,0,0,1846,147Z"/></g><path class="cls-14" d="M1841.5,357.05h-10V142a11.08,11.08,0,0,0,6,1.18,10.85,10.85,0,0,0,3.94-1.18Z"/><g class="cls-13"><circle cx="1841.01" cy="370.66" r="10.74"/></g><circle class="cls-15" cx="1836.51" cy="365.66" r="10.74"/><g class="cls-13"><circle cx="1841.01" cy="137.47" r="10.74"/></g><circle class="cls-16" cx="1836.51" cy="132.47" r="10.74"/></g></g></g></g></svg>